<?xml version="1.0" standalone="no"?><!DOCTYPE svg PUBLIC "-//W3C//DTD SVG 1.1//EN" "http://www.w3.org/Graphics/SVG/1.1/DTD/svg11.dtd"><svg t="1644075305132" class="icon" viewBox="0 0 1024 1024" version="1.1" xmlns="http://www.w3.org/2000/svg" p-id="9534" xmlns:xlink="http://www.w3.org/1999/xlink" width="16" height="16"><defs><style type="text/css"></style></defs><path d="M512 928c-217.184 0-448-67.296-448-192 0-37.888 22.272-92.416 128.48-137.152a32.032 32.032 0 0 1 24.864 59.008C161.376 681.408 128 710.624 128 736c0 53.44 146.08 128 384 128s384-74.56 384-128c0-25.76-34.144-55.328-91.392-79.072a32 32 0 0 1 24.576-59.136C937.312 642.72 960 697.76 960 736c0 124.704-230.816 192-448 192z" fill="#1DDDCB" p-id="9535"></path><path d="M768 440.672c0 144.64-105.216 279.072-256.128 327.328C358.816 720.8 256 589.504 256 440.672V227.68c10.88 1.888 22.336 2.88 34.304 2.88 27.168 0 56.608-4.928 87.584-14.752A310.08 310.08 0 0 0 513.536 128c25.12 25.312 71.968 65.728 132.288 87.488 28.256 10.24 56.512 15.36 83.936 15.36 13.312 0 26.432-1.248 38.24-3.552v213.376z" fill="#E3FFFA" p-id="9536"></path><path d="M511.872 800c-3.168 0-6.368-0.48-9.408-1.408C335.904 747.264 224 603.392 224 440.672V227.68c0-9.44 4.16-18.368 11.392-24.448a31.68 31.68 0 0 1 26.048-7.072c31.776 5.408 67.552 1.568 106.784-10.848a279.168 279.168 0 0 0 121.6-78.816 32.128 32.128 0 0 1 46.432-1.056c21.056 21.248 64.704 59.84 120.416 79.936 36.096 13.088 73.76 16.64 105.248 10.528a32 32 0 0 1 38.08 31.392v213.376c0 158.272-114.464 305.376-278.368 357.792a31.744 31.744 0 0 1-9.76 1.536zM288 262.56v178.112c0 131.36 89.472 248.192 223.68 293.632 132.576-46.528 224.32-165.952 224.32-293.632v-177.92a277.44 277.44 0 0 1-101.088-17.216c-49.6-17.888-90.56-46.688-120.64-72.992a340.576 340.576 0 0 1-126.688 73.76c-34.912 11.04-68.48 16.64-99.584 16.256z" fill="#1DDDCB" p-id="9537"></path><path d="M479.072 549.696a32 32 0 0 1-23.264-10.016l-65.792-69.696a32 32 0 1 1 46.56-43.936l42.528 45.056 108.352-114.752a32.032 32.032 0 0 1 46.56 43.936l-131.648 139.424a32.32 32.32 0 0 1-23.296 9.984z" fill="#1DDDCB" p-id="9538"></path></svg>